<svg version="1.2" baseProfile="tiny-ps" xmlns="http://www.w3.org/2000/svg" viewBox="0 0 1920 1080" width="1920" height="1080">
	<title>New Project</title>
	<style>
		tspan { white-space:pre }
	</style>
	<path id="Form 1" fill="#ffffff" d="m328 412h1256v210h-1256z" />
	<path id="PHILIPPMATTH.ES " fill="#000000" aria-label="PHILIPPMATTH.ES"  d="M399.71 544.49L380.84 544.38L372.84 602L347.05 602L369.69 438.14L411.66 438.26Q428.82 438.93 438.53 453.67Q448.32 468.3 446.8 491.49Q445 515.57 432.24 530.09Q419.48 544.49 399.71 544.49ZM391.71 465.72L384.61 516.81L401.24 517.03Q410.85 516.81 416.15 507.8Q421.45 498.69 421.19 483.38Q421.01 475.62 418.22 471Q415.43 466.39 410.49 465.94L391.71 465.72ZM549.68 438.14L526.94 602L501.24 602L510.94 531.89L473.29 531.89L463.59 602L437.8 602L460.44 438.14L486.23 438.14L477.07 504.43L514.72 504.43L523.98 438.14L549.68 438.14ZM586.15 438.14L563.41 602L537.62 602L560.36 438.14L586.15 438.14ZM622.44 438.14L603.57 574.54L648.59 574.54L644.72 602L574 602L596.65 438.14L622.44 438.14ZM698.27 438.14L675.53 602L649.74 602L672.48 438.14L698.27 438.14ZM738.78 544.49L719.91 544.38L711.91 602L686.12 602L708.77 438.14L750.73 438.26Q767.9 438.93 777.6 453.67Q787.4 468.3 785.87 491.49Q784.07 515.57 771.31 530.09Q758.55 544.49 738.78 544.49ZM730.79 465.72L723.69 516.81L740.31 517.03Q749.93 516.81 755.23 507.8Q760.53 498.69 760.26 483.38Q760.08 475.62 757.29 471Q754.51 466.39 749.57 465.94L730.79 465.72ZM829.53 544.49L810.66 544.38L802.66 602L776.87 602L799.52 438.14L841.48 438.26Q858.65 438.93 868.35 453.67Q878.15 468.3 876.62 491.49Q874.82 515.57 862.06 530.09Q849.3 544.49 829.53 544.49ZM821.53 465.72L814.43 516.81L831.06 517.03Q840.67 516.81 845.98 507.8Q851.28 498.69 851.01 483.38Q850.83 475.62 848.04 471Q845.26 466.39 840.31 465.94L821.53 465.72ZM890.27 438.14L923.51 438.14L931.15 555.97L971.32 438.14L1005.29 438.14L982.55 602L956.67 602L962.96 556.65L974.29 491.94L934.21 602L916.68 602L906.8 488.22L899.34 558.78L893.41 602L867.62 602L890.27 438.14ZM1061.53 602L1059.28 568.46L1024.51 568.46L1013.09 602L985.06 602L1047.42 438.14L1071.06 438.14L1088.22 602L1061.53 602ZM1053.8 482.82L1033.94 540.89L1057.49 540.89L1053.8 482.82ZM1183.82 438.14L1179.96 465.72L1148.59 465.72L1129.72 602L1103.84 602L1122.71 465.72L1091.8 465.72L1095.66 438.14L1183.82 438.14ZM1271.42 438.14L1267.56 465.72L1236.2 465.72L1217.33 602L1191.45 602L1210.32 465.72L1179.4 465.72L1183.27 438.14L1271.42 438.14ZM1364.42 438.14L1341.68 602L1315.98 602L1325.69 531.89L1288.03 531.89L1278.33 602L1252.54 602L1275.18 438.14L1300.97 438.14L1291.81 504.43L1329.46 504.43L1338.72 438.14L1364.42 438.14ZM1471.69 504.43L1467.91 531.1L1428.01 531.1L1421.99 574.54L1469.26 574.54L1465.4 602L1392.43 602L1415.07 438.14L1487.95 438.14L1484.09 465.72L1437.09 465.72L1431.7 504.43L1471.69 504.43ZM1529.55 558.11Q1530.44 549.78 1527.57 544.27Q1524.78 538.64 1515.8 533.35Q1506.9 527.95 1500.88 522.21Q1484.43 506.57 1485.78 482.71Q1486.59 468.98 1492.61 458.29Q1498.72 447.48 1508.88 441.52Q1519.03 435.55 1530.62 435.89Q1547.43 436.34 1556.86 450.52Q1566.39 464.59 1565.67 486.65L1539.97 486.53Q1540.96 463.46 1528.2 463.13Q1521.64 462.9 1516.88 468.53Q1512.2 474.04 1511.21 482.82Q1509.87 495.99 1525.77 505.33Q1541.68 514.67 1548.6 526.37Q1556.33 539.32 1555.16 557.88Q1553.81 579.27 1541.68 592.1Q1529.55 604.81 1511.39 604.36Q1493.15 603.91 1482.55 588.83Q1471.94 573.75 1472.84 550.23L1498.72 550.34Q1498 564.86 1501.69 571.16Q1505.46 577.35 1513.46 577.35Q1520.47 577.24 1524.51 571.95Q1528.56 566.55 1529.55 558.11Z" />
	<path id="PHILIPPMATTH.ES " fill="#0072ff" aria-label="PHILIPPMATTH.ES"  d="M1354.34 586.47Q1354.34 578.59 1358.47 573.42Q1362.61 568.13 1368.81 568.13Q1375.01 568.13 1379.05 573.08Q1383.1 577.92 1383.1 585.12Q1383.1 593.22 1378.78 598.29Q1374.47 603.35 1368.54 603.35Q1362.25 603.35 1358.38 598.51Q1354.52 593.67 1354.34 586.47Z" />
</svg>
